solid LensCoverWide
facet normal 0.0 0.0 -1.0
outer loop
vertex 91.8787373438375 168.637921357219 0.0
vertex 92.211849623225 168.146740402321 0.0
vertex 91.7288867100805 168.276149924873 0.0
endloop
endfacet
facet normal 0.0 0.0 -1.0
outer loop
vertex 92.211849623225 168.146740402321 0.0
vertex 91.8787373438375 168.637921357219 0.0
vertex 92.1171152777343 168.948581528999 0.0
endloop
endfacet
facet normal 0.0 0.0 -1.0
outer loop
vertex 92.211849623225 168.146740402321 0.0
vertex 92.1171152777343 168.948581528999 0.0
vertex 92.4277754495141 169.186959462896 0.0
endloop
endfacet
facet normal 0.0 0.0 -1.0
outer loop
vertex 92.211849623225 168.146740402321 0.0
vertex 92.4277754495141 169.186959462896 0.0
vertex 92.3117500457297 168.387921357219 0.0
endloop
endfacet
facet normal 0.0 0.0 -1.0
outer loop
vertex 92.3117500457297 168.387921357219 0.0
vertex 92.4277754495141 169.186959462896 0.0
vertex 92.4706686683276 168.595028138406 0.0
endloop
endfacet
facet normal 0.0 0.0 -1.0
outer loop
vertex 92.4706686683276 168.595028138406 0.0
vertex 92.4277754495141 169.186959462896 0.0
vertex 92.6777754495141 168.753946761003 0.0
endloop
endfacet
facet normal -0.827102748321112 -0.108890142577866 0.551401832214072
outer loop
vertex 92.211849623225 167.629102312116 0.75
vertex 91.6777754495141 167.887921357219 0.0
vertex 91.7288867100805 167.499692789565 0.0
endloop
endfacet
facet normal -0.827102748321112 -0.108890142577866 0.551401832214072
outer loop
vertex 91.6777754495141 167.887921357219 0.0
vertex 92.211849623225 167.629102312116 0.75
vertex 92.1777754495141 167.887921357219 0.75
endloop
endfacet
facet normal -0.108890142577875 -0.827102748321108 0.551401832214076
outer loop
vertex 93.1777754495141 166.887921357219 0.75
vertex 92.7895468818603 166.439032617785 0.0
vertex 93.1777754495141 166.387921357219 0.0
endloop
endfacet
facet normal -0.108890142577875 -0.827102748321108 0.551401832214076
outer loop
vertex 92.7895468818603 166.439032617785 0.0
vertex 93.1777754495141 166.887921357219 0.75
vertex 92.9189564044116 166.92199553093 0.75
endloop
endfacet
facet normal -0.319249744466415 -0.770737062874941 0.551401832214074
outer loop
vertex 92.9189564044116 166.92199553093 0.75
vertex 92.4277754495141 166.588883251542 0.0
vertex 92.7895468818603 166.439032617785 0.0
endloop
endfacet
facet normal -0.319249744466415 -0.770737062874941 0.551401832214074
outer loop
vertex 92.4277754495141 166.588883251542 0.0
vertex 92.9189564044116 166.92199553093 0.75
vertex 92.6777754495141 167.021895953435 0.75
endloop
endfacet
facet normal -0.507853003854685 -0.661846920297086 0.551401832214073
outer loop
vertex 92.6777754495141 167.021895953435 0.75
vertex 92.1171152777343 166.827261185439 0.0
vertex 92.4277754495141 166.588883251542 0.0
endloop
endfacet
facet normal -0.507853003854685 -0.661846920297086 0.551401832214073
outer loop
vertex 92.1171152777343 166.827261185439 0.0
vertex 92.6777754495141 167.021895953435 0.75
vertex 92.4706686683276 167.180814576032 0.75
endloop
endfacet
facet normal -0.661846920297093 -0.507853003854678 0.55140183221407
outer loop
vertex 92.4706686683276 167.180814576032 0.75
vertex 91.8787373438375 167.137921357219 0.0
vertex 92.1171152777343 166.827261185439 0.0
endloop
endfacet
facet normal -0.661846920297093 -0.507853003854678 0.55140183221407
outer loop
vertex 91.8787373438375 167.137921357219 0.0
vertex 92.4706686683276 167.180814576032 0.75
vertex 92.3117500457297 167.387921357219 0.75
endloop
endfacet
facet normal -0.770737062874939 -0.319249744466427 0.55140183221407
outer loop
vertex 92.3117500457297 167.387921357219 0.75
vertex 91.7288867100805 167.499692789565 0.0
vertex 91.8787373438375 167.137921357219 0.0
endloop
endfacet
facet normal -0.770737062874939 -0.319249744466427 0.55140183221407
outer loop
vertex 91.7288867100805 167.499692789565 0.0
vertex 92.3117500457297 167.387921357219 0.75
vertex 92.211849623225 167.629102312116 0.75
endloop
endfacet
facet normal 0.108890142577875 -0.827102748321108 0.551401832214076
outer loop
vertex 93.4365944946166 166.92199553093 0.75
vertex 93.1777754495141 166.387921357219 0.0
vertex 93.5660040171679 166.439032617785 0.0
endloop
endfacet
facet normal 0.108890142577875 -0.827102748321108 0.551401832214076
outer loop
vertex 93.1777754495141 166.387921357219 0.0
vertex 93.4365944946166 166.92199553093 0.75
vertex 93.1777754495141 166.887921357219 0.75
endloop
endfacet
facet normal -0.965925826289072 0.258819045102508 0.0
outer loop
vertex 92.9189564044116 166.92199553093 0.0
vertex 92.7895468818603 166.439032617785 -0.5
vertex 92.7895468818603 166.439032617785 0.0
endloop
endfacet
facet normal -0.965925826289072 0.258819045102508 0.0
outer loop
vertex 92.7895468818603 166.439032617785 -0.5
vertex 92.9189564044116 166.92199553093 0.0
vertex 92.9189564044116 166.92199553093 -0.5
endloop
endfacet
facet normal 0.0 0.0 -1.0
outer loop
vertex 93.6777754495141 167.021895953435 -0.5
vertex 93.5660040171679 166.439032617785 -0.5
vertex 93.4365944946166 166.92199553093 -0.5
endloop
endfacet
facet normal 0.0 0.0 -1.0
outer loop
vertex 93.5660040171679 166.439032617785 -0.5
vertex 93.6777754495141 167.021895953435 -0.5
vertex 93.9277754495141 166.588883251542 -0.5
endloop
endfacet
facet normal 0.0 0.0 -1.0
outer loop
vertex 92.9189564044116 166.92199553093 -0.5
vertex 93.1777754495141 166.387921357219 -0.5
vertex 92.7895468818603 166.439032617785 -0.5
endloop
endfacet
facet normal 0.0 0.0 -1.0
outer loop
vertex 93.1777754495141 166.387921357219 -0.5
vertex 92.9189564044116 166.92199553093 -0.5
vertex 93.1777754495141 166.887921357219 -0.5
endloop
endfacet
facet normal 0.0 0.0 -1.0
outer loop
vertex 93.1777754495141 166.387921357219 -0.5
vertex 93.1777754495141 166.887921357219 -0.5
vertex 93.4365944946166 166.92199553093 -0.5
endloop
endfacet
facet normal 0.0 0.0 -1.0
outer loop
vertex 93.1777754495141 166.387921357219 -0.5
vertex 93.4365944946166 166.92199553093 -0.5
vertex 93.3409331897892 165.148615280502 -0.5
endloop
endfacet
facet normal 0.0 0.0 -1.0
outer loop
vertex 93.3409331897892 165.148615280502 -0.5
vertex 93.4365944946166 166.92199553093 -0.5
vertex 93.7291617574429 165.199726541068 -0.5
endloop
endfacet
facet normal 0.0 0.0 -1.0
outer loop
vertex 93.7291617574429 165.199726541068 -0.5
vertex 93.4365944946166 166.92199553093 -0.5
vertex 93.5660040171679 166.439032617785 -0.5
endloop
endfacet
facet normal 0.499999999999985 -0.866025403784448 0.0
outer loop
vertex 92.3117500457297 167.387921357219 0.0
vertex 91.8787373438375 167.137921357219 -0.5
vertex 92.3117500457297 167.387921357219 -0.5
endloop
endfacet
facet normal 0.499999999999985 -0.866025403784448 0.0
outer loop
vertex 91.8787373438375 167.137921357219 -0.5
vertex 92.3117500457297 167.387921357219 0.0
vertex 91.8787373438375 167.137921357219 0.0
endloop
endfacet
facet normal -0.130526192220046 -0.991444861373811 0.0
outer loop
vertex 93.1777754495141 166.387921357219 0.0
vertex 92.7895468818603 166.439032617785 -0.5
vertex 93.1777754495141 166.387921357219 -0.5
endloop
endfacet
facet normal -0.130526192220046 -0.991444861373811 0.0
outer loop
vertex 92.7895468818603 166.439032617785 -0.5
vertex 93.1777754495141 166.387921357219 0.0
vertex 92.7895468818603 166.439032617785 0.0
endloop
endfacet
facet normal -0.923879532511276 -0.382683432365116 0.0
outer loop
vertex 91.7288867100805 167.499692789565 0.0
vertex 91.8787373438375 167.137921357219 -0.5
vertex 91.8787373438375 167.137921357219 0.0
endloop
endfacet
facet normal -0.923879532511276 -0.382683432365116 0.0
outer loop
vertex 91.8787373438375 167.137921357219 -0.5
vertex 91.7288867100805 167.499692789565 0.0
vertex 91.7288867100805 167.499692789565 -0.5
endloop
endfacet
facet normal 0.0 0.0 -1.0
outer loop
vertex 94.4768135551908 168.637921357219 -0.5
vertex 94.1437012758032 168.146740402321 -0.5
vertex 94.0438008532985 168.387921357219 -0.5
endloop
endfacet
facet normal 0.0 0.0 -1.0
outer loop
vertex 94.1437012758032 168.146740402321 -0.5
vertex 94.4768135551908 168.637921357219 -0.5
vertex 94.1777754495141 167.887921357219 -0.5
endloop
endfacet
facet normal 0.0 0.0 -1.0
outer loop
vertex 94.1777754495141 167.887921357219 -0.5
vertex 94.6266641889477 167.499692789565 -0.5
vertex 94.1437012758032 167.629102312116 -0.5
endloop
endfacet
facet normal 0.0 0.0 -1.0
outer loop
vertex 94.6266641889477 167.499692789565 -0.5
vertex 94.1777754495141 167.887921357219 -0.5
vertex 94.4768135551908 168.637921357219 -0.5
endloop
endfacet
facet normal 0.0 0.0 -1.0
outer loop
vertex 94.6266641889477 167.499692789565 -0.5
vertex 94.4768135551908 168.637921357219 -0.5
vertex 94.6266641889477 168.276149924873 -0.5
endloop
endfacet
facet normal 0.0 0.0 -1.0
outer loop
vertex 94.6266641889477 167.499692789565 -0.5
vertex 94.6266641889477 168.276149924873 -0.5
vertex 94.6777754495141 167.887921357219 -0.5
endloop
endfacet
facet normal 0.0 0.0 -1.0
outer loop
vertex 94.6777754495141 167.887921357219 -0.5
vertex 94.6266641889477 168.276149924873 -0.5
vertex 95.865970265665 168.439307665148 -0.5
endloop
endfacet
facet normal 0.0 0.0 -1.0
outer loop
vertex 94.6777754495141 167.887921357219 -0.5
vertex 95.865970265665 168.439307665148 -0.5
vertex 95.9170815262314 168.051079097494 -0.5
endloop
endfacet
facet normal 0.382683432365105 -0.92387953251128 0.0
outer loop
vertex 93.9277754495141 166.588883251542 0.0
vertex 93.5660040171679 166.439032617785 -0.5
vertex 93.9277754495141 166.588883251542 -0.5
endloop
endfacet
facet normal 0.382683432365105 -0.92387953251128 0.0
outer loop
vertex 93.5660040171679 166.439032617785 -0.5
vertex 93.9277754495141 166.588883251542 0.0
vertex 93.5660040171679 166.439032617785 0.0
endloop
endfacet
facet normal 0.866025403784438 0.500000000000002 0.0
outer loop
vertex 93.6777754495141 167.021895953435 -0.5
vertex 93.9277754495141 166.588883251542 0.0
vertex 93.9277754495141 166.588883251542 -0.5
endloop
endfacet
facet normal 0.866025403784438 0.500000000000002 0.0
outer loop
vertex 93.9277754495141 166.588883251542 0.0
vertex 93.6777754495141 167.021895953435 -0.5
vertex 93.6777754495141 167.021895953435 0.0
endloop
endfacet
facet normal -0.258819045102529 -0.965925826289066 -0.0
outer loop
vertex 94.6266641889477 167.499692789565 0.0
vertex 94.1437012758032 167.629102312116 -0.5
vertex 94.6266641889477 167.499692789565 -0.5
endloop
endfacet
facet normal -0.258819045102529 -0.965925826289066 -0.0
outer loop
vertex 94.1437012758032 167.629102312116 -0.5
vertex 94.6266641889477 167.499692789565 0.0
vertex 94.1437012758032 167.629102312116 0.0
endloop
endfacet
facet normal 0.258819045102529 0.965925826289066 0.0
outer loop
vertex 91.7288867100805 168.276149924873 0.0
vertex 92.211849623225 168.146740402321 -0.5
vertex 91.7288867100805 168.276149924873 -0.5
endloop
endfacet
facet normal 0.258819045102529 0.965925826289066 0.0
outer loop
vertex 92.211849623225 168.146740402321 -0.5
vertex 91.7288867100805 168.276149924873 0.0
vertex 92.211849623225 168.146740402321 0.0
endloop
endfacet
facet normal 0.0 0.0 -1.0
outer loop
vertex 91.6777754495141 167.887921357219 -0.5
vertex 90.4895806333632 167.33653504929 -0.5
vertex 90.4384693727968 167.724763616944 -0.5
endloop
endfacet
facet normal 0.0 0.0 -1.0
outer loop
vertex 90.4895806333632 167.33653504929 -0.5
vertex 91.6777754495141 167.887921357219 -0.5
vertex 91.7288867100805 167.499692789565 -0.5
endloop
endfacet
facet normal 0.0 0.0 -1.0
outer loop
vertex 91.7288867100805 167.499692789565 -0.5
vertex 91.6777754495141 167.887921357219 -0.5
vertex 91.7288867100805 168.276149924873 -0.5
endloop
endfacet
facet normal 0.0 0.0 -1.0
outer loop
vertex 91.7288867100805 167.499692789565 -0.5
vertex 91.7288867100805 168.276149924873 -0.5
vertex 92.211849623225 168.146740402321 -0.5
endloop
endfacet
facet normal 0.0 0.0 -1.0
outer loop
vertex 91.7288867100805 167.499692789565 -0.5
vertex 92.211849623225 168.146740402321 -0.5
vertex 91.8787373438375 167.137921357219 -0.5
endloop
endfacet
facet normal 0.0 0.0 -1.0
outer loop
vertex 91.8787373438375 167.137921357219 -0.5
vertex 92.211849623225 168.146740402321 -0.5
vertex 92.1777754495141 167.887921357219 -0.5
endloop
endfacet
facet normal 0.0 0.0 -1.0
outer loop
vertex 91.8787373438375 167.137921357219 -0.5
vertex 92.211849623225 167.629102312116 -0.5
vertex 92.3117500457297 167.387921357219 -0.5
endloop
endfacet
facet normal 0.0 0.0 -1.0
outer loop
vertex 92.211849623225 167.629102312116 -0.5
vertex 91.8787373438375 167.137921357219 -0.5
vertex 92.1777754495141 167.887921357219 -0.5
endloop
endfacet
facet normal -0.991444861373811 0.130526192220046 0.0
outer loop
vertex 91.7288867100805 168.276149924873 0.0
vertex 91.6777754495141 167.887921357219 -0.5
vertex 91.6777754495141 167.887921357219 0.0
endloop
endfacet
facet normal -0.991444861373811 0.130526192220046 0.0
outer loop
vertex 91.6777754495141 167.887921357219 -0.5
vertex 91.7288867100805 168.276149924873 0.0
vertex 91.7288867100805 168.276149924873 -0.5
endloop
endfacet
facet normal 0.923879532511276 0.382683432365116 0.0
outer loop
vertex 94.4768135551908 168.637921357219 -0.5
vertex 94.6266641889477 168.276149924873 0.0
vertex 94.6266641889477 168.276149924873 -0.5
endloop
endfacet
facet normal 0.923879532511276 0.382683432365116 0.0
outer loop
vertex 94.6266641889477 168.276149924873 0.0
vertex 94.4768135551908 168.637921357219 -0.5
vertex 94.4768135551908 168.637921357219 0.0
endloop
endfacet
facet normal 0.991444861373811 -0.130526192220046 0.0
outer loop
vertex 94.6777754495141 167.887921357219 -0.5
vertex 94.6266641889477 167.499692789565 0.0
vertex 94.6266641889477 167.499692789565 -0.5
endloop
endfacet
facet normal 0.991444861373811 -0.130526192220046 0.0
outer loop
vertex 94.6266641889477 167.499692789565 0.0
vertex 94.6777754495141 167.887921357219 -0.5
vertex 94.6777754495141 167.887921357219 0.0
endloop
endfacet
facet normal 0.965925826289072 -0.258819045102508 0.0
outer loop
vertex 93.5660040171679 169.336810096653 -0.5
vertex 93.4365944946166 168.853847183508 0.0
vertex 93.4365944946166 168.853847183508 -0.5
endloop
endfacet
facet normal 0.965925826289072 -0.258819045102508 0.0
outer loop
vertex 93.4365944946166 168.853847183508 0.0
vertex 93.5660040171679 169.336810096653 -0.5
vertex 93.5660040171679 169.336810096653 0.0
endloop
endfacet
facet normal -0.499999999999985 0.866025403784448 0.0
outer loop
vertex 94.0438008532985 168.387921357219 0.0
vertex 94.4768135551908 168.637921357219 -0.5
vertex 94.0438008532985 168.387921357219 -0.5
endloop
endfacet
facet normal -0.499999999999985 0.866025403784448 0.0
outer loop
vertex 94.4768135551908 168.637921357219 -0.5
vertex 94.0438008532985 168.387921357219 0.0
vertex 94.4768135551908 168.637921357219 0.0
endloop
endfacet
facet normal -0.382683432365105 0.92387953251128 0.0
outer loop
vertex 92.4277754495141 169.186959462896 0.0
vertex 92.7895468818603 169.336810096653 -0.5
vertex 92.4277754495141 169.186959462896 -0.5
endloop
endfacet
facet normal -0.382683432365105 0.92387953251128 0.0
outer loop
vertex 92.7895468818603 169.336810096653 -0.5
vertex 92.4277754495141 169.186959462896 0.0
vertex 92.7895468818603 169.336810096653 0.0
endloop
endfacet
facet normal -0.866025403784438 -0.500000000000002 -0.0
outer loop
vertex 92.4277754495141 169.186959462896 0.0
vertex 92.6777754495141 168.753946761003 -0.5
vertex 92.6777754495141 168.753946761003 0.0
endloop
endfacet
facet normal -0.866025403784438 -0.500000000000002 -0.0
outer loop
vertex 92.6777754495141 168.753946761003 -0.5
vertex 92.4277754495141 169.186959462896 0.0
vertex 92.4277754495141 169.186959462896 -0.5
endloop
endfacet
facet normal 0.0 0.0 -1.0
outer loop
vertex 93.0146177092391 170.627227433936 -0.5
vertex 92.7895468818603 169.336810096653 -0.5
vertex 92.6263891415853 170.57611617337 -0.5
endloop
endfacet
facet normal 0.0 0.0 -1.0
outer loop
vertex 92.7895468818603 169.336810096653 -0.5
vertex 93.0146177092391 170.627227433936 -0.5
vertex 92.9189564044116 168.853847183508 -0.5
endloop
endfacet
facet normal 0.0 0.0 -1.0
outer loop
vertex 92.9189564044116 168.853847183508 -0.5
vertex 93.0146177092391 170.627227433936 -0.5
vertex 93.1777754495141 168.887921357219 -0.5
endloop
endfacet
facet normal 0.0 0.0 -1.0
outer loop
vertex 93.1777754495141 168.887921357219 -0.5
vertex 93.0146177092391 170.627227433936 -0.5
vertex 93.1777754495141 169.387921357219 -0.5
endloop
endfacet
facet normal 0.0 0.0 -1.0
outer loop
vertex 93.1777754495141 168.887921357219 -0.5
vertex 93.1777754495141 169.387921357219 -0.5
vertex 93.5660040171679 169.336810096653 -0.5
endloop
endfacet
facet normal 0.0 0.0 -1.0
outer loop
vertex 93.1777754495141 168.887921357219 -0.5
vertex 93.5660040171679 169.336810096653 -0.5
vertex 93.4365944946166 168.853847183508 -0.5
endloop
endfacet
facet normal 0.0 0.0 -1.0
outer loop
vertex 92.7895468818603 169.336810096653 -0.5
vertex 92.6777754495141 168.753946761003 -0.5
vertex 92.4277754495141 169.186959462896 -0.5
endloop
endfacet
facet normal 0.0 0.0 -1.0
outer loop
vertex 92.6777754495141 168.753946761003 -0.5
vertex 92.7895468818603 169.336810096653 -0.5
vertex 92.9189564044116 168.853847183508 -0.5
endloop
endfacet
facet normal 0.130526192220046 0.991444861373811 0.0
outer loop
vertex 93.1777754495141 169.387921357219 0.0
vertex 93.5660040171679 169.336810096653 -0.5
vertex 93.1777754495141 169.387921357219 -0.5
endloop
endfacet
facet normal 0.130526192220046 0.991444861373811 0.0
outer loop
vertex 93.5660040171679 169.336810096653 -0.5
vertex 93.1777754495141 169.387921357219 0.0
vertex 93.5660040171679 169.336810096653 0.0
endloop
endfacet
facet normal 0.0 0.0 -1.0
outer loop
vertex 93.8848822307007 167.180814576032 0.0
vertex 93.9277754495141 166.588883251542 0.0
vertex 93.6777754495141 167.021895953435 0.0
endloop
endfacet
facet normal 0.0 0.0 -1.0
outer loop
vertex 93.9277754495141 166.588883251542 0.0
vertex 93.8848822307007 167.180814576032 0.0
vertex 94.0438008532985 167.387921357219 0.0
endloop
endfacet
facet normal 0.0 0.0 -1.0
outer loop
vertex 93.9277754495141 166.588883251542 0.0
vertex 94.0438008532985 167.387921357219 0.0
vertex 94.2384356212939 166.827261185439 0.0
endloop
endfacet
facet normal 0.0 0.0 -1.0
outer loop
vertex 94.2384356212939 166.827261185439 0.0
vertex 94.0438008532985 167.387921357219 0.0
vertex 94.1437012758032 167.629102312116 0.0
endloop
endfacet
facet normal 0.0 0.0 -1.0
outer loop
vertex 94.2384356212939 166.827261185439 0.0
vertex 94.1437012758032 167.629102312116 0.0
vertex 94.6266641889477 167.499692789565 0.0
endloop
endfacet
facet normal 0.0 0.0 -1.0
outer loop
vertex 94.2384356212939 166.827261185439 0.0
vertex 94.6266641889477 167.499692789565 0.0
vertex 94.4768135551908 167.137921357219 0.0
endloop
endfacet
facet normal 0.0 0.0 -1.0
outer loop
vertex 92.3117500457297 167.387921357219 0.0
vertex 92.1171152777343 166.827261185439 0.0
vertex 91.8787373438375 167.137921357219 0.0
endloop
endfacet
facet normal 0.0 0.0 -1.0
outer loop
vertex 92.1171152777343 166.827261185439 0.0
vertex 92.3117500457297 167.387921357219 0.0
vertex 92.4277754495141 166.588883251542 0.0
endloop
endfacet
facet normal 0.0 0.0 -1.0
outer loop
vertex 92.4277754495141 166.588883251542 0.0
vertex 92.3117500457297 167.387921357219 0.0
vertex 92.4706686683276 167.180814576032 0.0
endloop
endfacet
facet normal 0.0 0.0 -1.0
outer loop
vertex 92.4277754495141 166.588883251542 0.0
vertex 92.4706686683276 167.180814576032 0.0
vertex 92.7895468818603 166.439032617785 0.0
endloop
endfacet
facet normal 0.0 0.0 -1.0
outer loop
vertex 92.7895468818603 166.439032617785 0.0
vertex 92.4706686683276 167.180814576032 0.0
vertex 92.6777754495141 167.021895953435 0.0
endloop
endfacet
facet normal 0.0 0.0 -1.0
outer loop
vertex 92.7895468818603 166.439032617785 0.0
vertex 92.6777754495141 167.021895953435 0.0
vertex 92.9189564044116 166.92199553093 0.0
endloop
endfacet
facet normal 0.991444861373811 0.130526192220045 0.0
outer loop
vertex 93.5660040171679 166.439032617785 -0.5
vertex 93.7291617574429 165.199726541068 0.0
vertex 93.7291617574429 165.199726541068 -0.5
endloop
endfacet
facet normal 0.991444861373811 0.130526192220045 0.0
outer loop
vertex 93.7291617574429 165.199726541068 0.0
vertex 93.5660040171679 166.439032617785 -0.5
vertex 93.5660040171679 166.439032617785 0.0
endloop
endfacet
facet normal -0.991444861373811 -0.130526192220045 0.0
outer loop
vertex 93.1777754495141 166.387921357219 0.0
vertex 93.3409331897892 165.148615280502 -0.5
vertex 93.3409331897892 165.148615280502 0.0
endloop
endfacet
facet normal -0.991444861373811 -0.130526192220045 0.0
outer loop
vertex 93.3409331897892 165.148615280502 -0.5
vertex 93.1777754495141 166.387921357219 0.0
vertex 93.1777754495141 166.387921357219 -0.5
endloop
endfacet
facet normal 0.0 0.0 1.0
outer loop
vertex 93.3409331897892 165.148615280502 0.0
vertex 93.5660040171679 166.439032617785 0.0
vertex 93.1777754495141 166.387921357219 0.0
endloop
endfacet
facet normal 0.0 0.0 1.0
outer loop
vertex 93.5660040171679 166.439032617785 0.0
vertex 93.3409331897892 165.148615280502 0.0
vertex 93.7291617574429 165.199726541068 0.0
endloop
endfacet
facet normal 0.130526192220046 -0.991444861373811 0.0
outer loop
vertex 93.7291617574429 165.199726541068 0.0
vertex 93.3409331897892 165.148615280502 -0.5
vertex 93.7291617574429 165.199726541068 -0.5
endloop
endfacet
facet normal 0.130526192220046 -0.991444861373811 0.0
outer loop
vertex 93.3409331897892 165.148615280502 -0.5
vertex 93.7291617574429 165.199726541068 0.0
vertex 93.3409331897892 165.148615280502 0.0
endloop
endfacet
facet normal -0.130526192220044 0.991444861373811 0.0
outer loop
vertex 94.6266641889477 168.276149924873 0.0
vertex 95.865970265665 168.439307665148 -0.5
vertex 94.6266641889477 168.276149924873 -0.5
endloop
endfacet
facet normal -0.130526192220044 0.991444861373811 0.0
outer loop
vertex 95.865970265665 168.439307665148 -0.5
vertex 94.6266641889477 168.276149924873 0.0
vertex 95.865970265665 168.439307665148 0.0
endloop
endfacet
facet normal 0.130526192220044 -0.991444861373811 0.0
outer loop
vertex 95.9170815262314 168.051079097494 0.0
vertex 94.6777754495141 167.887921357219 -0.5
vertex 95.9170815262314 168.051079097494 -0.5
endloop
endfacet
facet normal 0.130526192220044 -0.991444861373811 0.0
outer loop
vertex 94.6777754495141 167.887921357219 -0.5
vertex 95.9170815262314 168.051079097494 0.0
vertex 94.6777754495141 167.887921357219 0.0
endloop
endfacet
facet normal 0.0 0.0 1.0
outer loop
vertex 94.6777754495141 167.887921357219 0.0
vertex 95.865970265665 168.439307665148 0.0
vertex 94.6266641889477 168.276149924873 0.0
endloop
endfacet
facet normal 0.0 0.0 1.0
outer loop
vertex 95.865970265665 168.439307665148 0.0
vertex 94.6777754495141 167.887921357219 0.0
vertex 95.9170815262314 168.051079097494 0.0
endloop
endfacet
facet normal 0.991444861373811 0.130526192220046 0.0
outer loop
vertex 95.865970265665 168.439307665148 -0.5
vertex 95.9170815262314 168.051079097494 0.0
vertex 95.9170815262314 168.051079097494 -0.5
endloop
endfacet
facet normal 0.991444861373811 0.130526192220046 0.0
outer loop
vertex 95.9170815262314 168.051079097494 0.0
vertex 95.865970265665 168.439307665148 -0.5
vertex 95.865970265665 168.439307665148 0.0
endloop
endfacet
facet normal 0.130526192220044 -0.991444861373811 0.0
outer loop
vertex 91.7288867100805 167.499692789565 0.0
vertex 90.4895806333632 167.33653504929 -0.5
vertex 91.7288867100805 167.499692789565 -0.5
endloop
endfacet
facet normal 0.130526192220044 -0.991444861373811 0.0
outer loop
vertex 90.4895806333632 167.33653504929 -0.5
vertex 91.7288867100805 167.499692789565 0.0
vertex 90.4895806333632 167.33653504929 0.0
endloop
endfacet
facet normal -0.991444861373811 -0.130526192220045 0.0
outer loop
vertex 92.6263891415853 170.57611617337 0.0
vertex 92.7895468818603 169.336810096653 -0.5
vertex 92.7895468818603 169.336810096653 0.0
endloop
endfacet
facet normal -0.991444861373811 -0.130526192220045 0.0
outer loop
vertex 92.7895468818603 169.336810096653 -0.5
vertex 92.6263891415853 170.57611617337 0.0
vertex 92.6263891415853 170.57611617337 -0.5
endloop
endfacet
facet normal 0.991444861373811 0.130526192220045 0.0
outer loop
vertex 93.0146177092391 170.627227433936 -0.5
vertex 93.1777754495141 169.387921357219 0.0
vertex 93.1777754495141 169.387921357219 -0.5
endloop
endfacet
facet normal 0.991444861373811 0.130526192220045 0.0
outer loop
vertex 93.1777754495141 169.387921357219 0.0
vertex 93.0146177092391 170.627227433936 -0.5
vertex 93.0146177092391 170.627227433936 0.0
endloop
endfacet
facet normal 0.0 0.0 1.0
outer loop
vertex 92.7895468818603 169.336810096653 0.0
vertex 93.0146177092391 170.627227433936 0.0
vertex 92.6263891415853 170.57611617337 0.0
endloop
endfacet
facet normal 0.0 0.0 1.0
outer loop
vertex 93.0146177092391 170.627227433936 0.0
vertex 92.7895468818603 169.336810096653 0.0
vertex 93.1777754495141 169.387921357219 0.0
endloop
endfacet
facet normal -0.130526192220046 0.991444861373811 0.0
outer loop
vertex 92.6263891415853 170.57611617337 0.0
vertex 93.0146177092391 170.627227433936 -0.5
vertex 92.6263891415853 170.57611617337 -0.5
endloop
endfacet
facet normal -0.130526192220046 0.991444861373811 0.0
outer loop
vertex 93.0146177092391 170.627227433936 -0.5
vertex 92.6263891415853 170.57611617337 0.0
vertex 93.0146177092391 170.627227433936 0.0
endloop
endfacet
facet normal -0.130526192220044 0.991444861373811 0.0
outer loop
vertex 90.4384693727968 167.724763616944 0.0
vertex 91.6777754495141 167.887921357219 -0.5
vertex 90.4384693727968 167.724763616944 -0.5
endloop
endfacet
facet normal -0.130526192220044 0.991444861373811 0.0
outer loop
vertex 91.6777754495141 167.887921357219 -0.5
vertex 90.4384693727968 167.724763616944 0.0
vertex 91.6777754495141 167.887921357219 0.0
endloop
endfacet
facet normal 0.0 0.0 1.0
outer loop
vertex 90.4895806333632 167.33653504929 0.0
vertex 91.6777754495141 167.887921357219 0.0
vertex 90.4384693727968 167.724763616944 0.0
endloop
endfacet
facet normal 0.0 0.0 1.0
outer loop
vertex 91.6777754495141 167.887921357219 0.0
vertex 90.4895806333632 167.33653504929 0.0
vertex 91.7288867100805 167.499692789565 0.0
endloop
endfacet
facet normal -0.991444861373811 -0.130526192220046 -0.0
outer loop
vertex 90.4384693727968 167.724763616944 0.0
vertex 90.4895806333632 167.33653504929 -0.5
vertex 90.4895806333632 167.33653504929 0.0
endloop
endfacet
facet normal -0.991444861373811 -0.130526192220046 -0.0
outer loop
vertex 90.4895806333632 167.33653504929 -0.5
vertex 90.4384693727968 167.724763616944 0.0
vertex 90.4384693727968 167.724763616944 -0.5
endloop
endfacet
facet normal -0.130526192220072 0.991444861373808 0.0
outer loop
vertex 93.1777754495141 166.887921357219 0.25
vertex 93.4365944946166 166.92199553093 -0.5
vertex 93.1777754495141 166.887921357219 -0.5
endloop
endfacet
facet normal -0.130526192220072 0.991444861373808 0.0
outer loop
vertex 93.4365944946166 166.92199553093 -0.5
vertex 93.1777754495141 166.887921357219 0.25
vertex 93.4365944946166 166.92199553093 0.25
endloop
endfacet
facet normal -0.382683432365086 0.923879532511288 -5.96558584430479e-018
outer loop
vertex 93.4365944946166 166.92199553093 0.25
vertex 93.6777754495141 167.021895953435 -0.5
vertex 93.4365944946166 166.92199553093 -0.5
endloop
endfacet
facet normal -0.382683432365086 0.923879532511288 -5.96558584430479e-018
outer loop
vertex 93.6777754495141 167.021895953435 -0.5
vertex 93.4365944946166 166.92199553093 0.25
vertex 93.6777754495141 167.021895953435 0.0
endloop
endfacet
facet normal -0.382683432365086 0.923879532511288 -5.96558584430479e-018
outer loop
vertex 93.6777754495141 167.021895953435 0.0
vertex 93.4365944946166 166.92199553093 0.25
vertex 93.6777754495141 167.021895953435 0.25
endloop
endfacet
facet normal -0.608761429008699 0.793353340291252 -6.39463966764229e-018
outer loop
vertex 93.6777754495141 167.021895953435 0.25
vertex 93.8848822307007 167.180814576032 0.0
vertex 93.6777754495141 167.021895953435 0.0
endloop
endfacet
facet normal -0.608761429008699 0.793353340291252 -6.39463966764229e-018
outer loop
vertex 93.8848822307007 167.180814576032 0.0
vertex 93.6777754495141 167.021895953435 0.25
vertex 93.8848822307007 167.180814576032 0.25
endloop
endfacet
facet normal -0.793353340291252 0.608761429008699 6.39463966763814e-018
outer loop
vertex 94.0438008532985 167.387921357219 0.25
vertex 93.8848822307007 167.180814576032 0.0
vertex 93.8848822307007 167.180814576032 0.25
endloop
endfacet
facet normal -0.793353340291252 0.608761429008699 6.39463966763814e-018
outer loop
vertex 93.8848822307007 167.180814576032 0.0
vertex 94.0438008532985 167.387921357219 0.25
vertex 94.0438008532985 167.387921357219 0.0
endloop
endfacet
facet normal -0.923879532511295 0.382683432365071 -3.75898586559662e-018
outer loop
vertex 94.1437012758032 167.629102312116 0.25
vertex 94.0438008532985 167.387921357219 0.0
vertex 94.0438008532985 167.387921357219 0.25
endloop
endfacet
facet normal -0.923879532511295 0.382683432365071 -3.75898586559662e-018
outer loop
vertex 94.0438008532985 167.387921357219 0.0
vertex 94.1437012758032 167.629102312116 0.25
vertex 94.1437012758032 167.629102312116 0.0
endloop
endfacet
facet normal -0.991444861373807 0.130526192220078 1.8530136758708e-018
outer loop
vertex 94.1777754495141 167.887921357219 0.25
vertex 94.1437012758032 167.629102312116 0.0
vertex 94.1437012758032 167.629102312116 0.25
endloop
endfacet
facet normal -0.991444861373807 0.130526192220078 1.8530136758708e-018
outer loop
vertex 94.1437012758032 167.629102312116 0.0
vertex 94.1777754495141 167.887921357219 0.25
vertex 94.1437012758032 167.629102312116 -0.5
endloop
endfacet
facet normal -0.991444861373807 0.130526192220078 1.8530136758708e-018
outer loop
vertex 94.1437012758032 167.629102312116 -0.5
vertex 94.1777754495141 167.887921357219 0.25
vertex 94.1777754495141 167.887921357219 -0.5
endloop
endfacet
facet normal -0.991444861373813 -0.130526192220035 0.0
outer loop
vertex 94.1437012758032 168.146740402321 0.25
vertex 94.1777754495141 167.887921357219 -0.5
vertex 94.1777754495141 167.887921357219 0.25
endloop
endfacet
facet normal -0.991444861373813 -0.130526192220035 0.0
outer loop
vertex 94.1777754495141 167.887921357219 -0.5
vertex 94.1437012758032 168.146740402321 0.25
vertex 94.1437012758032 168.146740402321 -0.5
endloop
endfacet
facet normal -0.92387953251128 -0.382683432365108 -4.97132153692014e-018
outer loop
vertex 94.0438008532985 168.387921357219 0.25
vertex 94.1437012758032 168.146740402321 -0.5
vertex 94.1437012758032 168.146740402321 0.25
endloop
endfacet
facet normal -0.92387953251128 -0.382683432365108 -4.97132153692014e-018
outer loop
vertex 94.1437012758032 168.146740402321 -0.5
vertex 94.0438008532985 168.387921357219 0.25
vertex 94.0438008532985 168.387921357219 -0.5
endloop
endfacet
facet normal -0.92387953251128 -0.382683432365108 -4.97132153692014e-018
outer loop
vertex 94.0438008532985 168.387921357219 -0.5
vertex 94.0438008532985 168.387921357219 0.25
vertex 94.0438008532985 168.387921357219 0.0
endloop
endfacet
facet normal -0.793353340291252 -0.608761429008699 -6.39463966764229e-018
outer loop
vertex 93.8848822307007 168.595028138406 0.25
vertex 94.0438008532985 168.387921357219 0.0
vertex 94.0438008532985 168.387921357219 0.25
endloop
endfacet
facet normal -0.793353340291252 -0.608761429008699 -6.39463966764229e-018
outer loop
vertex 94.0438008532985 168.387921357219 0.0
vertex 93.8848822307007 168.595028138406 0.25
vertex 93.8848822307007 168.595028138406 0.0
endloop
endfacet
facet normal -0.608761429008699 -0.793353340291252 6.39463966764644e-018
outer loop
vertex 93.8848822307007 168.595028138406 0.25
vertex 93.6777754495141 168.753946761003 0.0
vertex 93.8848822307007 168.595028138406 0.0
endloop
endfacet
facet normal -0.608761429008699 -0.793353340291252 6.39463966764644e-018
outer loop
vertex 93.6777754495141 168.753946761003 0.0
vertex 93.8848822307007 168.595028138406 0.25
vertex 93.6777754495141 168.753946761003 0.25
endloop
endfacet
facet normal 0.991444861373813 0.130526192220035 0.0
outer loop
vertex 92.1777754495141 167.887921357219 -0.5
vertex 92.211849623225 167.629102312116 0.25
vertex 92.211849623225 167.629102312116 -0.5
endloop
endfacet
facet normal 0.991444861373813 0.130526192220035 0.0
outer loop
vertex 92.211849623225 167.629102312116 0.25
vertex 92.1777754495141 167.887921357219 -0.5
vertex 92.1777754495141 167.887921357219 0.25
endloop
endfacet
facet normal 0.991444861373807 -0.130526192220078 2.77952051380619e-018
outer loop
vertex 92.211849623225 168.146740402321 -0.5
vertex 92.1777754495141 167.887921357219 0.25
vertex 92.1777754495141 167.887921357219 -0.5
endloop
endfacet
facet normal 0.991444861373807 -0.130526192220078 2.77952051380619e-018
outer loop
vertex 92.1777754495141 167.887921357219 0.25
vertex 92.211849623225 168.146740402321 -0.5
vertex 92.211849623225 168.146740402321 0.25
endloop
endfacet
facet normal 0.991444861373807 -0.130526192220078 2.77952051380619e-018
outer loop
vertex 92.211849623225 168.146740402321 0.25
vertex 92.211849623225 168.146740402321 -0.5
vertex 92.211849623225 168.146740402321 0.0
endloop
endfacet
facet normal 0.827102748321108 -0.108890142577876 0.551401832214076
outer loop
vertex 94.6777754495141 167.887921357219 0.0
vertex 94.1437012758032 167.629102312116 0.75
vertex 94.6266641889477 167.499692789565 0.0
endloop
endfacet
facet normal 0.827102748321108 -0.108890142577876 0.551401832214076
outer loop
vertex 94.1437012758032 167.629102312116 0.75
vertex 94.6777754495141 167.887921357219 0.0
vertex 94.1777754495141 167.887921357219 0.75
endloop
endfacet
facet normal 0.923879532511295 -0.382683432365071 3.16500164306122e-018
outer loop
vertex 92.3117500457297 168.387921357219 0.0
vertex 92.211849623225 168.146740402321 0.25
vertex 92.211849623225 168.146740402321 0.0
endloop
endfacet
facet normal 0.923879532511295 -0.382683432365071 3.16500164306122e-018
outer loop
vertex 92.211849623225 168.146740402321 0.25
vertex 92.3117500457297 168.387921357219 0.0
vertex 92.3117500457297 168.387921357219 0.25
endloop
endfacet
facet normal 0.793353340291252 -0.608761429008699 6.39463966764229e-018
outer loop
vertex 92.4706686683276 168.595028138406 0.0
vertex 92.3117500457297 168.387921357219 0.25
vertex 92.3117500457297 168.387921357219 0.0
endloop
endfacet
facet normal 0.793353340291252 -0.608761429008699 6.39463966764229e-018
outer loop
vertex 92.3117500457297 168.387921357219 0.25
vertex 92.4706686683276 168.595028138406 0.0
vertex 92.4706686683276 168.595028138406 0.25
endloop
endfacet
facet normal 0.608761429008699 -0.793353340291252 -1.83229535555438e-018
outer loop
vertex 92.6777754495141 168.753946761003 0.25
vertex 92.4706686683276 168.595028138406 0.0
vertex 92.6777754495141 168.753946761003 0.0
endloop
endfacet
facet normal 0.608761429008699 -0.793353340291252 -1.83229535555438e-018
outer loop
vertex 92.4706686683276 168.595028138406 0.0
vertex 92.6777754495141 168.753946761003 0.25
vertex 92.4706686683276 168.595028138406 0.25
endloop
endfacet
facet normal 0.382683432365086 -0.923879532511288 3.97705722953652e-018
outer loop
vertex 92.9189564044116 168.853847183508 0.25
vertex 92.6777754495141 168.753946761003 -0.5
vertex 92.9189564044116 168.853847183508 -0.5
endloop
endfacet
facet normal 0.382683432365086 -0.923879532511288 3.97705722953652e-018
outer loop
vertex 92.6777754495141 168.753946761003 -0.5
vertex 92.9189564044116 168.853847183508 0.25
vertex 92.6777754495141 168.753946761003 0.0
endloop
endfacet
facet normal 0.382683432365086 -0.923879532511288 3.97705722953652e-018
outer loop
vertex 92.6777754495141 168.753946761003 0.0
vertex 92.9189564044116 168.853847183508 0.25
vertex 92.6777754495141 168.753946761003 0.25
endloop
endfacet
facet normal 0.130526192220072 -0.991444861373808 0.0
outer loop
vertex 93.1777754495141 168.887921357219 0.25
vertex 92.9189564044116 168.853847183508 -0.5
vertex 93.1777754495141 168.887921357219 -0.5
endloop
endfacet
facet normal 0.130526192220072 -0.991444861373808 0.0
outer loop
vertex 92.9189564044116 168.853847183508 -0.5
vertex 93.1777754495141 168.887921357219 0.25
vertex 92.9189564044116 168.853847183508 0.25
endloop
endfacet
facet normal -0.130526192220072 -0.991444861373808 3.24277393277361e-018
outer loop
vertex 93.4365944946166 168.853847183508 0.0
vertex 93.1777754495141 168.887921357219 -0.5
vertex 93.4365944946166 168.853847183508 -0.5
endloop
endfacet
facet normal -0.130526192220072 -0.991444861373808 3.24277393277361e-018
outer loop
vertex 93.1777754495141 168.887921357219 -0.5
vertex 93.4365944946166 168.853847183508 0.0
vertex 93.1777754495141 168.887921357219 0.25
endloop
endfacet
facet normal -0.130526192220072 -0.991444861373808 3.24277393277361e-018
outer loop
vertex 93.1777754495141 168.887921357219 0.25
vertex 93.4365944946166 168.853847183508 0.0
vertex 93.4365944946166 168.853847183508 0.25
endloop
endfacet
facet normal -0.382683432365086 -0.923879532511288 7.22097961992635e-018
outer loop
vertex 93.6777754495141 168.753946761003 0.25
vertex 93.4365944946166 168.853847183508 0.0
vertex 93.6777754495141 168.753946761003 0.0
endloop
endfacet
facet normal -0.382683432365086 -0.923879532511288 7.22097961992635e-018
outer loop
vertex 93.4365944946166 168.853847183508 0.0
vertex 93.6777754495141 168.753946761003 0.25
vertex 93.4365944946166 168.853847183508 0.25
endloop
endfacet
facet normal 0.130526192220072 0.991444861373808 2.31626709483829e-018
outer loop
vertex 92.9189564044116 166.92199553093 0.0
vertex 93.1777754495141 166.887921357219 -0.5
vertex 92.9189564044116 166.92199553093 -0.5
endloop
endfacet
facet normal 0.130526192220072 0.991444861373808 2.31626709483829e-018
outer loop
vertex 93.1777754495141 166.887921357219 -0.5
vertex 92.9189564044116 166.92199553093 0.0
vertex 93.1777754495141 166.887921357219 0.25
endloop
endfacet
facet normal 0.130526192220072 0.991444861373808 2.31626709483829e-018
outer loop
vertex 93.1777754495141 166.887921357219 0.25
vertex 92.9189564044116 166.92199553093 0.0
vertex 92.9189564044116 166.92199553093 0.25
endloop
endfacet
facet normal 0.382683432365086 0.923879532511288 7.22097961992635e-018
outer loop
vertex 92.6777754495141 167.021895953435 0.25
vertex 92.9189564044116 166.92199553093 0.0
vertex 92.6777754495141 167.021895953435 0.0
endloop
endfacet
facet normal 0.382683432365086 0.923879532511288 7.22097961992635e-018
outer loop
vertex 92.9189564044116 166.92199553093 0.0
vertex 92.6777754495141 167.021895953435 0.25
vertex 92.9189564044116 166.92199553093 0.25
endloop
endfacet
facet normal 0.608761429008699 0.793353340291252 1.83229535555438e-018
outer loop
vertex 92.4706686683276 167.180814576032 0.25
vertex 92.6777754495141 167.021895953435 0.0
vertex 92.4706686683276 167.180814576032 0.0
endloop
endfacet
facet normal 0.608761429008699 0.793353340291252 1.83229535555438e-018
outer loop
vertex 92.6777754495141 167.021895953435 0.0
vertex 92.4706686683276 167.180814576032 0.25
vertex 92.6777754495141 167.021895953435 0.25
endloop
endfacet
facet normal 0.793353340291252 0.608761429008699 -6.39463966764644e-018
outer loop
vertex 92.3117500457297 167.387921357219 0.0
vertex 92.4706686683276 167.180814576032 0.25
vertex 92.4706686683276 167.180814576032 0.0
endloop
endfacet
facet normal 0.793353340291252 0.608761429008699 -6.39463966764644e-018
outer loop
vertex 92.4706686683276 167.180814576032 0.25
vertex 92.3117500457297 167.387921357219 0.0
vertex 92.3117500457297 167.387921357219 0.25
endloop
endfacet
facet normal 0.92387953251128 0.382683432365108 9.94264307384028e-019
outer loop
vertex 92.211849623225 167.629102312116 -0.5
vertex 92.3117500457297 167.387921357219 0.0
vertex 92.3117500457297 167.387921357219 -0.5
endloop
endfacet
facet normal 0.92387953251128 0.382683432365108 9.94264307384028e-019
outer loop
vertex 92.3117500457297 167.387921357219 0.0
vertex 92.211849623225 167.629102312116 -0.5
vertex 92.3117500457297 167.387921357219 0.25
endloop
endfacet
facet normal 0.92387953251128 0.382683432365108 9.94264307384028e-019
outer loop
vertex 92.3117500457297 167.387921357219 0.25
vertex 92.211849623225 167.629102312116 -0.5
vertex 92.211849623225 167.629102312116 0.25
endloop
endfacet
facet normal 0.770737062874943 -0.319249744466404 0.551401832214078
outer loop
vertex 94.6266641889477 167.499692789565 0.0
vertex 94.0438008532985 167.387921357219 0.75
vertex 94.4768135551908 167.137921357219 0.0
endloop
endfacet
facet normal 0.770737062874943 -0.319249744466404 0.551401832214078
outer loop
vertex 94.0438008532985 167.387921357219 0.75
vertex 94.6266641889477 167.499692789565 0.0
vertex 94.1437012758032 167.629102312116 0.75
endloop
endfacet
facet normal 0.661846920297078 -0.507853003854692 0.551401832214076
outer loop
vertex 94.4768135551908 167.137921357219 0.0
vertex 93.8848822307007 167.180814576032 0.75
vertex 94.2384356212939 166.827261185439 0.0
endloop
endfacet
facet normal 0.661846920297078 -0.507853003854692 0.551401832214076
outer loop
vertex 93.8848822307007 167.180814576032 0.75
vertex 94.4768135551908 167.137921357219 0.0
vertex 94.0438008532985 167.387921357219 0.75
endloop
endfacet
facet normal 0.507853003854685 -0.661846920297086 0.551401832214073
outer loop
vertex 93.8848822307007 167.180814576032 0.75
vertex 93.9277754495141 166.588883251542 0.0
vertex 94.2384356212939 166.827261185439 0.0
endloop
endfacet
facet normal 0.507853003854685 -0.661846920297086 0.551401832214073
outer loop
vertex 93.9277754495141 166.588883251542 0.0
vertex 93.8848822307007 167.180814576032 0.75
vertex 93.6777754495141 167.021895953435 0.75
endloop
endfacet
facet normal 0.827102748321112 0.108890142577866 0.551401832214072
outer loop
vertex 94.6266641889477 168.276149924873 0.0
vertex 94.1777754495141 167.887921357219 0.75
vertex 94.6777754495141 167.887921357219 0.0
endloop
endfacet
facet normal 0.827102748321112 0.108890142577866 0.551401832214072
outer loop
vertex 94.1777754495141 167.887921357219 0.75
vertex 94.6266641889477 168.276149924873 0.0
vertex 94.1437012758032 168.146740402321 0.75
endloop
endfacet
facet normal 0.770737062874939 0.319249744466427 0.55140183221407
outer loop
vertex 94.6266641889477 168.276149924873 0.0
vertex 94.0438008532985 168.387921357219 0.75
vertex 94.1437012758032 168.146740402321 0.75
endloop
endfacet
facet normal 0.770737062874939 0.319249744466427 0.55140183221407
outer loop
vertex 94.0438008532985 168.387921357219 0.75
vertex 94.6266641889477 168.276149924873 0.0
vertex 94.4768135551908 168.637921357219 0.0
endloop
endfacet
facet normal 0.661846920297093 0.507853003854678 0.55140183221407
outer loop
vertex 94.4768135551908 168.637921357219 0.0
vertex 93.8848822307007 168.595028138406 0.75
vertex 94.0438008532985 168.387921357219 0.75
endloop
endfacet
facet normal 0.661846920297093 0.507853003854678 0.55140183221407
outer loop
vertex 93.8848822307007 168.595028138406 0.75
vertex 94.4768135551908 168.637921357219 0.0
vertex 94.2384356212939 168.948581528999 0.0
endloop
endfacet
facet normal 0.507853003854685 0.661846920297086 0.551401832214073
outer loop
vertex 93.6777754495141 168.753946761003 0.75
vertex 94.2384356212939 168.948581528999 0.0
vertex 93.9277754495141 169.186959462896 0.0
endloop
endfacet
facet normal 0.507853003854685 0.661846920297086 0.551401832214073
outer loop
vertex 94.2384356212939 168.948581528999 0.0
vertex 93.6777754495141 168.753946761003 0.75
vertex 93.8848822307007 168.595028138406 0.75
endloop
endfacet
facet normal 0.319249744466415 0.770737062874941 0.551401832214074
outer loop
vertex 93.4365944946166 168.853847183508 0.75
vertex 93.9277754495141 169.186959462896 0.0
vertex 93.5660040171679 169.336810096653 0.0
endloop
endfacet
facet normal 0.319249744466415 0.770737062874941 0.551401832214074
outer loop
vertex 93.9277754495141 169.186959462896 0.0
vertex 93.4365944946166 168.853847183508 0.75
vertex 93.6777754495141 168.753946761003 0.75
endloop
endfacet
facet normal 0.108890142577875 0.827102748321108 0.551401832214076
outer loop
vertex 93.1777754495141 168.887921357219 0.75
vertex 93.5660040171679 169.336810096653 0.0
vertex 93.1777754495141 169.387921357219 0.0
endloop
endfacet
facet normal 0.108890142577875 0.827102748321108 0.551401832214076
outer loop
vertex 93.5660040171679 169.336810096653 0.0
vertex 93.1777754495141 168.887921357219 0.75
vertex 93.4365944946166 168.853847183508 0.75
endloop
endfacet
facet normal -0.108890142577875 0.827102748321108 0.551401832214076
outer loop
vertex 92.9189564044116 168.853847183508 0.75
vertex 93.1777754495141 169.387921357219 0.0
vertex 92.7895468818603 169.336810096653 0.0
endloop
endfacet
facet normal -0.108890142577875 0.827102748321108 0.551401832214076
outer loop
vertex 93.1777754495141 169.387921357219 0.0
vertex 92.9189564044116 168.853847183508 0.75
vertex 93.1777754495141 168.887921357219 0.75
endloop
endfacet
facet normal -0.507853003854685 0.661846920297086 0.551401832214073
outer loop
vertex 92.4706686683276 168.595028138406 0.75
vertex 92.4277754495141 169.186959462896 0.0
vertex 92.1171152777343 168.948581528999 0.0
endloop
endfacet
facet normal -0.507853003854685 0.661846920297086 0.551401832214073
outer loop
vertex 92.4277754495141 169.186959462896 0.0
vertex 92.4706686683276 168.595028138406 0.75
vertex 92.6777754495141 168.753946761003 0.75
endloop
endfacet
facet normal -0.319249744466415 0.770737062874941 0.551401832214074
outer loop
vertex 92.6777754495141 168.753946761003 0.75
vertex 92.7895468818603 169.336810096653 0.0
vertex 92.4277754495141 169.186959462896 0.0
endloop
endfacet
facet normal -0.319249744466415 0.770737062874941 0.551401832214074
outer loop
vertex 92.7895468818603 169.336810096653 0.0
vertex 92.6777754495141 168.753946761003 0.75
vertex 92.9189564044116 168.853847183508 0.75
endloop
endfacet
facet normal -0.661846920297078 0.507853003854692 0.551401832214075
outer loop
vertex 92.4706686683276 168.595028138406 0.75
vertex 91.8787373438375 168.637921357219 0.0
vertex 92.3117500457297 168.387921357219 0.75
endloop
endfacet
facet normal -0.661846920297078 0.507853003854692 0.551401832214075
outer loop
vertex 91.8787373438375 168.637921357219 0.0
vertex 92.4706686683276 168.595028138406 0.75
vertex 92.1171152777343 168.948581528999 0.0
endloop
endfacet
facet normal -0.770737062874943 0.319249744466404 0.551401832214078
outer loop
vertex 92.3117500457297 168.387921357219 0.75
vertex 91.7288867100805 168.276149924873 0.0
vertex 92.211849623225 168.146740402321 0.75
endloop
endfacet
facet normal -0.770737062874943 0.319249744466404 0.551401832214078
outer loop
vertex 91.7288867100805 168.276149924873 0.0
vertex 92.3117500457297 168.387921357219 0.75
vertex 91.8787373438375 168.637921357219 0.0
endloop
endfacet
facet normal -0.827102748321108 0.108890142577876 0.551401832214076
outer loop
vertex 92.211849623225 168.146740402321 0.75
vertex 91.6777754495141 167.887921357219 0.0
vertex 92.1777754495141 167.887921357219 0.75
endloop
endfacet
facet normal -0.827102748321108 0.108890142577876 0.551401832214076
outer loop
vertex 91.6777754495141 167.887921357219 0.0
vertex 92.211849623225 168.146740402321 0.75
vertex 91.7288867100805 168.276149924873 0.0
endloop
endfacet
facet normal 0.319249744466415 -0.770737062874941 0.551401832214074
outer loop
vertex 93.6777754495141 167.021895953435 0.75
vertex 93.5660040171679 166.439032617785 0.0
vertex 93.9277754495141 166.588883251542 0.0
endloop
endfacet
facet normal 0.319249744466415 -0.770737062874941 0.551401832214074
outer loop
vertex 93.5660040171679 166.439032617785 0.0
vertex 93.6777754495141 167.021895953435 0.75
vertex 93.4365944946166 166.92199553093 0.75
endloop
endfacet
facet normal 0.0 0.0 -1.0
outer loop
vertex 92.211849623225 168.146740402321 0.25
vertex 92.211849623225 167.629102312116 0.25
vertex 92.1777754495141 167.887921357219 0.25
endloop
endfacet
facet normal 0.0 0.0 -1.0
outer loop
vertex 92.211849623225 167.629102312116 0.25
vertex 92.211849623225 168.146740402321 0.25
vertex 92.3117500457297 167.387921357219 0.25
endloop
endfacet
facet normal 0.0 0.0 -1.0
outer loop
vertex 92.3117500457297 167.387921357219 0.25
vertex 92.211849623225 168.146740402321 0.25
vertex 92.3117500457297 168.387921357219 0.25
endloop
endfacet
facet normal 0.0 0.0 -1.0
outer loop
vertex 92.3117500457297 167.387921357219 0.25
vertex 92.3117500457297 168.387921357219 0.25
vertex 92.4706686683276 168.595028138406 0.25
endloop
endfacet
facet normal 0.0 0.0 -1.0
outer loop
vertex 92.3117500457297 167.387921357219 0.25
vertex 92.4706686683276 168.595028138406 0.25
vertex 92.4706686683276 167.180814576032 0.25
endloop
endfacet
facet normal 0.0 0.0 -1.0
outer loop
vertex 92.4706686683276 167.180814576032 0.25
vertex 92.4706686683276 168.595028138406 0.25
vertex 92.6777754495141 168.753946761003 0.25
endloop
endfacet
facet normal 0.0 0.0 -1.0
outer loop
vertex 92.4706686683276 167.180814576032 0.25
vertex 92.6777754495141 168.753946761003 0.25
vertex 92.6777754495141 167.021895953435 0.25
endloop
endfacet
facet normal 0.0 0.0 -1.0
outer loop
vertex 92.6777754495141 167.021895953435 0.25
vertex 92.6777754495141 168.753946761003 0.25
vertex 92.9189564044116 168.853847183508 0.25
endloop
endfacet
facet normal 0.0 0.0 -1.0
outer loop
vertex 92.6777754495141 167.021895953435 0.25
vertex 92.9189564044116 168.853847183508 0.25
vertex 92.9189564044116 166.92199553093 0.25
endloop
endfacet
facet normal 0.0 0.0 -1.0
outer loop
vertex 92.9189564044116 166.92199553093 0.25
vertex 92.9189564044116 168.853847183508 0.25
vertex 93.1777754495141 168.887921357219 0.25
endloop
endfacet
facet normal 0.0 0.0 -1.0
outer loop
vertex 92.9189564044116 166.92199553093 0.25
vertex 93.1777754495141 168.887921357219 0.25
vertex 93.1777754495141 166.887921357219 0.25
endloop
endfacet
facet normal 0.0 0.0 -1.0
outer loop
vertex 93.1777754495141 166.887921357219 0.25
vertex 93.1777754495141 168.887921357219 0.25
vertex 93.4365944946166 168.853847183508 0.25
endloop
endfacet
facet normal 0.0 0.0 -1.0
outer loop
vertex 93.1777754495141 166.887921357219 0.25
vertex 93.4365944946166 168.853847183508 0.25
vertex 93.4365944946166 166.92199553093 0.25
endloop
endfacet
facet normal 0.0 0.0 -1.0
outer loop
vertex 93.4365944946166 166.92199553093 0.25
vertex 93.4365944946166 168.853847183508 0.25
vertex 93.6777754495141 168.753946761003 0.25
endloop
endfacet
facet normal 0.0 0.0 -1.0
outer loop
vertex 93.4365944946166 166.92199553093 0.25
vertex 93.6777754495141 168.753946761003 0.25
vertex 93.6777754495141 167.021895953435 0.25
endloop
endfacet
facet normal 0.0 0.0 -1.0
outer loop
vertex 93.6777754495141 167.021895953435 0.25
vertex 93.6777754495141 168.753946761003 0.25
vertex 93.8848822307007 168.595028138406 0.25
endloop
endfacet
facet normal 0.0 0.0 -1.0
outer loop
vertex 93.6777754495141 167.021895953435 0.25
vertex 93.8848822307007 168.595028138406 0.25
vertex 93.8848822307007 167.180814576032 0.25
endloop
endfacet
facet normal 0.0 0.0 -1.0
outer loop
vertex 93.8848822307007 167.180814576032 0.25
vertex 93.8848822307007 168.595028138406 0.25
vertex 94.0438008532985 168.387921357219 0.25
endloop
endfacet
facet normal 0.0 0.0 -1.0
outer loop
vertex 93.8848822307007 167.180814576032 0.25
vertex 94.0438008532985 168.387921357219 0.25
vertex 94.0438008532985 167.387921357219 0.25
endloop
endfacet
facet normal 0.0 0.0 -1.0
outer loop
vertex 94.0438008532985 167.387921357219 0.25
vertex 94.0438008532985 168.387921357219 0.25
vertex 94.1437012758032 168.146740402321 0.25
endloop
endfacet
facet normal 0.0 0.0 -1.0
outer loop
vertex 94.0438008532985 167.387921357219 0.25
vertex 94.1437012758032 168.146740402321 0.25
vertex 94.1437012758032 167.629102312116 0.25
endloop
endfacet
facet normal 0.0 0.0 -1.0
outer loop
vertex 94.1437012758032 167.629102312116 0.25
vertex 94.1437012758032 168.146740402321 0.25
vertex 94.1777754495141 167.887921357219 0.25
endloop
endfacet
facet normal 0.0 0.0 1.0
outer loop
vertex 92.211849623225 167.629102312116 0.75
vertex 92.211849623225 168.146740402321 0.75
vertex 92.1777754495141 167.887921357219 0.75
endloop
endfacet
facet normal 0.0 0.0 1.0
outer loop
vertex 92.211849623225 168.146740402321 0.75
vertex 92.211849623225 167.629102312116 0.75
vertex 92.3117500457297 167.387921357219 0.75
endloop
endfacet
facet normal 0.0 0.0 1.0
outer loop
vertex 92.211849623225 168.146740402321 0.75
vertex 92.3117500457297 167.387921357219 0.75
vertex 92.3117500457297 168.387921357219 0.75
endloop
endfacet
facet normal 0.0 0.0 1.0
outer loop
vertex 92.3117500457297 168.387921357219 0.75
vertex 92.3117500457297 167.387921357219 0.75
vertex 92.4706686683276 167.180814576032 0.75
endloop
endfacet
facet normal 0.0 0.0 1.0
outer loop
vertex 92.3117500457297 168.387921357219 0.75
vertex 92.4706686683276 167.180814576032 0.75
vertex 92.4706686683276 168.595028138406 0.75
endloop
endfacet
facet normal 0.0 0.0 1.0
outer loop
vertex 92.4706686683276 168.595028138406 0.75
vertex 92.4706686683276 167.180814576032 0.75
vertex 92.6777754495141 167.021895953435 0.75
endloop
endfacet
facet normal 0.0 0.0 1.0
outer loop
vertex 92.4706686683276 168.595028138406 0.75
vertex 92.6777754495141 167.021895953435 0.75
vertex 92.6777754495141 168.753946761003 0.75
endloop
endfacet
facet normal 0.0 0.0 1.0
outer loop
vertex 92.6777754495141 168.753946761003 0.75
vertex 92.6777754495141 167.021895953435 0.75
vertex 92.9189564044116 166.92199553093 0.75
endloop
endfacet
facet normal 0.0 0.0 1.0
outer loop
vertex 92.6777754495141 168.753946761003 0.75
vertex 92.9189564044116 166.92199553093 0.75
vertex 92.9189564044116 168.853847183508 0.75
endloop
endfacet
facet normal 0.0 0.0 1.0
outer loop
vertex 92.9189564044116 168.853847183508 0.75
vertex 92.9189564044116 166.92199553093 0.75
vertex 93.1777754495141 166.887921357219 0.75
endloop
endfacet
facet normal 0.0 0.0 1.0
outer loop
vertex 92.9189564044116 168.853847183508 0.75
vertex 93.1777754495141 166.887921357219 0.75
vertex 93.1777754495141 168.887921357219 0.75
endloop
endfacet
facet normal 0.0 0.0 1.0
outer loop
vertex 93.1777754495141 168.887921357219 0.75
vertex 93.1777754495141 166.887921357219 0.75
vertex 93.4365944946166 166.92199553093 0.75
endloop
endfacet
facet normal 0.0 0.0 1.0
outer loop
vertex 93.1777754495141 168.887921357219 0.75
vertex 93.4365944946166 166.92199553093 0.75
vertex 93.4365944946166 168.853847183508 0.75
endloop
endfacet
facet normal 0.0 0.0 1.0
outer loop
vertex 93.4365944946166 168.853847183508 0.75
vertex 93.4365944946166 166.92199553093 0.75
vertex 93.6777754495141 167.021895953435 0.75
endloop
endfacet
facet normal 0.0 0.0 1.0
outer loop
vertex 93.4365944946166 168.853847183508 0.75
vertex 93.6777754495141 167.021895953435 0.75
vertex 93.6777754495141 168.753946761003 0.75
endloop
endfacet
facet normal 0.0 0.0 1.0
outer loop
vertex 93.6777754495141 168.753946761003 0.75
vertex 93.6777754495141 167.021895953435 0.75
vertex 93.8848822307007 167.180814576032 0.75
endloop
endfacet
facet normal 0.0 0.0 1.0
outer loop
vertex 93.6777754495141 168.753946761003 0.75
vertex 93.8848822307007 167.180814576032 0.75
vertex 93.8848822307007 168.595028138406 0.75
endloop
endfacet
facet normal 0.0 0.0 1.0
outer loop
vertex 93.8848822307007 168.595028138406 0.75
vertex 93.8848822307007 167.180814576032 0.75
vertex 94.0438008532985 167.387921357219 0.75
endloop
endfacet
facet normal 0.0 0.0 1.0
outer loop
vertex 93.8848822307007 168.595028138406 0.75
vertex 94.0438008532985 167.387921357219 0.75
vertex 94.0438008532985 168.387921357219 0.75
endloop
endfacet
facet normal 0.0 0.0 1.0
outer loop
vertex 94.0438008532985 168.387921357219 0.75
vertex 94.0438008532985 167.387921357219 0.75
vertex 94.1437012758032 167.629102312116 0.75
endloop
endfacet
facet normal 0.0 0.0 1.0
outer loop
vertex 94.0438008532985 168.387921357219 0.75
vertex 94.1437012758032 167.629102312116 0.75
vertex 94.1437012758032 168.146740402321 0.75
endloop
endfacet
facet normal 0.0 0.0 1.0
outer loop
vertex 94.1437012758032 168.146740402321 0.75
vertex 94.1437012758032 167.629102312116 0.75
vertex 94.1777754495141 167.887921357219 0.75
endloop
endfacet
facet normal 0.0 0.0 -1.0
outer loop
vertex 93.5660040171679 169.336810096653 0.0
vertex 93.6777754495141 168.753946761003 0.0
vertex 93.4365944946166 168.853847183508 0.0
endloop
endfacet
facet normal 0.0 0.0 -1.0
outer loop
vertex 93.6777754495141 168.753946761003 0.0
vertex 93.5660040171679 169.336810096653 0.0
vertex 93.9277754495141 169.186959462896 0.0
endloop
endfacet
facet normal 0.0 0.0 -1.0
outer loop
vertex 93.6777754495141 168.753946761003 0.0
vertex 93.9277754495141 169.186959462896 0.0
vertex 93.8848822307007 168.595028138406 0.0
endloop
endfacet
facet normal 0.0 0.0 -1.0
outer loop
vertex 93.8848822307007 168.595028138406 0.0
vertex 93.9277754495141 169.186959462896 0.0
vertex 94.0438008532985 168.387921357219 0.0
endloop
endfacet
facet normal 0.0 0.0 -1.0
outer loop
vertex 94.0438008532985 168.387921357219 0.0
vertex 93.9277754495141 169.186959462896 0.0
vertex 94.2384356212939 168.948581528999 0.0
endloop
endfacet
facet normal 0.0 0.0 -1.0
outer loop
vertex 94.0438008532985 168.387921357219 0.0
vertex 94.2384356212939 168.948581528999 0.0
vertex 94.4768135551908 168.637921357219 0.0
endloop
endfacet
endsolid LensCoverWide
